<mxfile host="65bd71144e">
    <diagram id="Qi7LSx28HFMjrjH3Dn8v" name="Page-1">
        <mxGraphModel dx="594" dy="561" grid="1" gridSize="10" guides="1" tooltips="1" connect="1" arrows="1" fold="1" page="1" pageScale="1" pageWidth="827" pageHeight="1169" math="0" shadow="0">
            <root>
                <mxCell id="0"/>
                <mxCell id="1" parent="0"/>
                <mxCell id="2" value="" style="verticalLabelPosition=bottom;verticalAlign=top;html=1;shape=mxgraph.basic.rect;fillColor2=none;strokeWidth=1;size=20;indent=5;" parent="1" vertex="1">
                    <mxGeometry x="80" y="10" width="530" height="460" as="geometry"/>
                </mxCell>
                <mxCell id="3" value="" style="verticalLabelPosition=bottom;verticalAlign=top;html=1;shape=mxgraph.basic.rect;fillColor2=none;strokeWidth=1;size=20;indent=5;" parent="1" vertex="1">
                    <mxGeometry x="120" y="40" width="340" height="60" as="geometry"/>
                </mxCell>
                <mxCell id="4" value="&lt;font style=&quot;font-size: 18px&quot;&gt;Pizza Order&lt;/font&gt;" style="text;html=1;resizable=0;autosize=1;align=center;verticalAlign=middle;points=[];fillColor=none;strokeColor=none;rounded=0;" parent="1" vertex="1">
                    <mxGeometry x="230" y="60" width="110" height="20" as="geometry"/>
                </mxCell>
                <mxCell id="6" value="&lt;font style=&quot;font-size: 14px&quot;&gt;Item&amp;nbsp; &amp;nbsp; &amp;nbsp; &amp;nbsp;Cost&lt;/font&gt;" style="text;html=1;resizable=0;autosize=1;align=center;verticalAlign=middle;points=[];fillColor=none;strokeColor=none;rounded=0;fontSize=18;" parent="1" vertex="1">
                    <mxGeometry x="150" y="120" width="100" height="30" as="geometry"/>
                </mxCell>
                <mxCell id="7" value="&lt;div class=&quot;bjhkR&quot; style=&quot;margin-bottom: 2px ; padding: 2.5px 3px 1.5px&quot;&gt;&lt;font style=&quot;font-size: 14px&quot;&gt;Large&amp;nbsp; &amp;nbsp; &amp;nbsp; &amp;nbsp;$6.00&amp;nbsp;&amp;nbsp;&lt;/font&gt;&lt;/div&gt;&lt;div class=&quot;bjhkR&quot; style=&quot;margin-bottom: 2px ; padding: 2.5px 3px 1.5px&quot;&gt;&lt;font size=&quot;3&quot;&gt;&amp;nbsp; &amp;nbsp; &amp;nbsp; &amp;nbsp; &amp;nbsp; &amp;nbsp;Extra Large&amp;nbsp; &amp;nbsp;$10.00&amp;nbsp; &amp;nbsp; &amp;nbsp;&lt;/font&gt; &amp;nbsp; &amp;nbsp; &amp;nbsp; &amp;nbsp;&lt;/div&gt;" style="text;html=1;align=center;verticalAlign=middle;resizable=0;points=[];autosize=1;strokeColor=none;fillColor=none;fontSize=18;" parent="1" vertex="1">
                    <mxGeometry x="70" y="150" width="270" height="60" as="geometry"/>
                </mxCell>
                <mxCell id="10" value="1 Topping&amp;nbsp; &amp;nbsp; &amp;nbsp; &amp;nbsp; &amp;nbsp; &amp;nbsp; &amp;nbsp;$1.00&lt;br&gt;2 Toppings&amp;nbsp; &amp;nbsp; &amp;nbsp; &amp;nbsp; &amp;nbsp; &amp;nbsp; $1.75&lt;br&gt;3 Toppings&amp;nbsp; &amp;nbsp; &amp;nbsp; &amp;nbsp; &amp;nbsp; &amp;nbsp; $2.50&lt;br&gt;4 Toppings&amp;nbsp; &amp;nbsp; &amp;nbsp; &amp;nbsp; &amp;nbsp; &amp;nbsp; $3.35" style="text;html=1;resizable=0;autosize=1;align=center;verticalAlign=middle;points=[];fillColor=none;strokeColor=none;rounded=0;fontSize=18;" parent="1" vertex="1">
                    <mxGeometry x="100" y="220" width="210" height="90" as="geometry"/>
                </mxCell>
                <mxCell id="12" value="Pay" style="labelPosition=center;verticalLabelPosition=middle;align=center;html=1;shape=mxgraph.basic.shaded_button;dx=10;fillColor=#E6E6E6;strokeColor=none;fontSize=18;" parent="1" vertex="1">
                    <mxGeometry x="120" y="340" width="140" height="50" as="geometry"/>
                </mxCell>
                <mxCell id="15" value="Subtotal: ___&lt;br&gt;Tax: _______&lt;br&gt;Final Cost: __" style="text;html=1;align=center;verticalAlign=middle;resizable=0;points=[];autosize=1;strokeColor=none;fillColor=none;fontSize=18;" parent="1" vertex="1">
                    <mxGeometry x="150" y="400" width="130" height="70" as="geometry"/>
                </mxCell>
            </root>
        </mxGraphModel>
    </diagram>
</mxfile>